<svg xmlns="http://www.w3.org/2000/svg" viewBox="0 0 99.79 161.49"><defs><style>.cls-1{fill:#101820;}</style></defs><title>Asset 1as3</title><g id="Layer_2" data-name="Layer 2"><g id="Layer_1-2" data-name="Layer 1"><path class="cls-1" d="M48.31,25A12.52,12.52,0,1,0,35.79,12.52,12.53,12.53,0,0,0,48.31,25Z"/><path class="cls-1" d="M95.94,55.53h0L72.54,55a.35.35,0,0,1-.29-.15L59.79,38.58A6.21,6.21,0,0,1,59,37.21a11.68,11.68,0,0,0-10.7-7h0A11.56,11.56,0,0,0,44,31a5.11,5.11,0,0,1-1.73.33L21,31.81h0a4.3,4.3,0,0,0-2.05.4l-.19.09a4.31,4.31,0,0,0-.47.26l-.47.35-.18.16c-.06.06-.12.09-.17.15h0l-.25.33a1.86,1.86,0,0,0-.21.28L1.44,54h0a4.43,4.43,0,0,0,6.49,6H8L22,41.75a.66.66,0,0,1,.49-.25l14.15-.3c0,.22,0,.43,0,.65V80.19A11.68,11.68,0,0,0,47.32,91.82h.22c.25,0,.51,0,.77,0h0c.43,0,.84,0,1.26-.07l5.51-.21a.39.39,0,0,1,.4.49L50.66,112a.17.17,0,0,1-.21.14,24.79,24.79,0,0,0-20.16,6.07,24.3,24.3,0,0,0-6.87,10.32,24.88,24.88,0,0,0,8.74,28.18.27.27,0,0,1-.16.5H14.33a2.25,2.25,0,0,0-2.27,1.94,2.17,2.17,0,0,0,2.15,2.38H47.34a2.33,2.33,0,0,0,.38,0A24.81,24.81,0,0,0,70.13,128a.16.16,0,0,1,.05-.19,6.86,6.86,0,0,0,2.19-3.38h0L81.64,85.8a7.75,7.75,0,0,0-7.45-10.52l-3,.19-10.83.4a.34.34,0,0,1-.36-.34V54.82L65,61.42h0a4.75,4.75,0,0,0,1.58,1.63,6.06,6.06,0,0,0,2.08.68h0l26.22.61h0a4.44,4.44,0,0,0,1-8.81Zm-29,85.2a20.53,20.53,0,0,1-27.72,15,20,20,0,0,1-7.54-5.23,20.51,20.51,0,0,1-4-21.07,19.82,19.82,0,0,1,5.22-7.78,20.54,20.54,0,0,1,13.92-5.48,20,20,0,0,1,2.78.2L45,135.41a1.73,1.73,0,1,0,3.36.79L53,117.09a20.42,20.42,0,0,1,6.2,3.16l-.15.64h0A6.91,6.91,0,0,0,64,129.22a7.39,7.39,0,0,0,2,.23.17.17,0,0,1,.18.11A20.38,20.38,0,0,1,67,140.73Zm-.82-49.55-5.83,24.34a.19.19,0,0,1-.28.11,24.62,24.62,0,0,0-5.87-2.69.18.18,0,0,1-.12-.22l5.08-21a.39.39,0,0,1,.37-.3Z"/><path class="cls-1" d="M4.38,157.17H2.16a2.16,2.16,0,0,0,0,4.32H4.38a2.16,2.16,0,0,0,0-4.32Z"/></g></g></svg>